<svg width="24" height="24" viewBox="0 0 24 24" fill="none" xmlns="http://www.w3.org/2000/svg">
<path d="M17.1704 14.5818C16.7792 14.0464 16.1915 13.6883 15.5365 13.5859C14.8814 13.4835 14.2124 13.6454 13.6766 14.0359L12.6485 14.7819C11.1696 13.4438 9.98326 11.8145 9.16378 9.99617L10.1828 9.2501C10.7202 8.85863 11.0804 8.27004 11.1844 7.61338C11.2885 6.95673 11.1278 6.28562 10.7378 5.74721L9.68239 4.28236C9.49196 4.01481 9.24963 3.78831 8.96983 3.61637C8.69003 3.44443 8.3785 3.33056 8.05377 3.28153C7.41227 3.18692 6.7592 3.34692 6.23408 3.72736L4.61456 4.87376C4.10011 5.24504 3.6997 5.75275 3.45854 6.33957C3.21738 6.92639 3.14508 7.56895 3.2498 8.19468C3.71209 10.8889 4.79005 13.44 6.39973 15.6494C8.00941 17.8587 10.1074 19.6667 12.5302 20.9325C13.0172 21.1827 13.5567 21.3137 14.1042 21.3146C14.8244 21.3166 15.5262 21.0869 16.1059 20.6595L17.689 19.5677C18.2258 19.1779 18.5858 18.5909 18.6899 17.9357C18.7939 17.2806 18.6336 16.6109 18.244 16.0739L17.1704 14.5818ZM16.8883 18.4486L15.3052 19.5677C14.9974 19.7908 14.6338 19.9243 14.2548 19.9532C13.8757 19.9821 13.4961 19.9053 13.158 19.7315C10.9132 18.5566 8.97167 16.8769 7.48606 14.8245C6.00044 12.7721 5.01127 10.403 4.59637 7.90353C4.5331 7.52807 4.57628 7.1424 4.72101 6.79022C4.86574 6.43805 5.10623 6.13346 5.41523 5.91098L6.98925 4.82827C7.18639 4.68898 7.42118 4.61284 7.66254 4.6099H7.83541C7.98362 4.6328 8.12584 4.68478 8.25388 4.76285C8.38192 4.84092 8.49326 4.94355 8.58148 5.06482L9.65509 6.55697C9.83034 6.80099 9.90192 7.10445 9.85418 7.40107C9.80645 7.69768 9.64329 7.96337 9.40034 8.14009L7.92639 9.21371C7.80348 9.30388 7.71429 9.43261 7.67307 9.57938C7.63184 9.72614 7.64095 9.88248 7.69893 10.0235C8.66187 12.4086 10.1959 14.5206 12.1663 16.174C12.2853 16.2685 12.4328 16.3199 12.5848 16.3199C12.7368 16.3199 12.8843 16.2685 13.0033 16.174L14.4773 15.1095C14.5984 15.0213 14.7358 14.9579 14.8815 14.923C15.0272 14.888 15.1784 14.8822 15.3263 14.9059C15.4743 14.9296 15.6161 14.9823 15.7436 15.0609C15.8712 15.1396 15.9819 15.2427 16.0695 15.3642L17.134 16.8382C17.2243 16.9598 17.2896 17.0981 17.3262 17.2451C17.3628 17.3921 17.3698 17.5449 17.347 17.6946C17.3241 17.8444 17.2718 17.9881 17.1931 18.1175C17.1144 18.2469 17.0108 18.3595 16.8883 18.4486ZM12.9942 6.74803C13.0242 6.65944 13.0722 6.57805 13.1354 6.50907C13.1985 6.44008 13.2753 6.38499 13.3609 6.34733C13.4465 6.30967 13.539 6.29025 13.6325 6.29031C13.726 6.29038 13.8185 6.30992 13.9041 6.3477C14.9411 6.73118 15.8407 7.41422 16.4887 8.31008C17.1367 9.20594 17.5038 10.2742 17.5434 11.3791C17.5484 11.5586 17.4824 11.7328 17.3597 11.8639C17.2371 11.9951 17.0677 12.0726 16.8883 12.0797C16.712 12.0799 16.5424 12.0117 16.4152 11.8896C16.288 11.7675 16.213 11.6008 16.206 11.4246C16.177 10.5921 15.9023 9.78682 15.4166 9.11008C14.9309 8.43333 14.2559 7.9154 13.4764 7.62148C13.3857 7.59865 13.3006 7.5574 13.2265 7.5003C13.1524 7.44319 13.0908 7.37145 13.0455 7.28953C13.0003 7.20762 12.9724 7.11727 12.9636 7.02412C12.9548 6.93096 12.9652 6.83699 12.9942 6.74803ZM20.8007 11.2063C20.8159 11.3869 20.7596 11.5663 20.6439 11.7058C20.5282 11.8454 20.3623 11.9339 20.182 11.9523H20.1183C19.9484 11.951 19.7849 11.8873 19.6591 11.7731C19.5332 11.659 19.4538 11.5026 19.4359 11.3336C19.304 9.86112 18.776 8.45177 17.9077 7.25516C17.0395 6.05854 15.8635 5.1193 14.5046 4.53712C14.3381 4.46593 14.2067 4.33152 14.1393 4.16345C14.0719 3.99538 14.074 3.80742 14.1452 3.64092C14.2164 3.47442 14.3508 3.34302 14.5188 3.27562C14.6869 3.20822 14.8749 3.21035 15.0414 3.28153C16.6302 3.95538 18.0056 5.04897 19.0202 6.44505C20.0348 7.84112 20.6503 9.48702 20.8007 11.2063Z" fill="#37474F"/>
<path d="M17.1704 14.5818C16.7792 14.0464 16.1915 13.6883 15.5365 13.5859C14.8814 13.4835 14.2124 13.6454 13.6766 14.0359L12.6485 14.7819C11.1696 13.4438 9.98326 11.8145 9.16378 9.99617L10.1828 9.2501C10.7202 8.85863 11.0804 8.27004 11.1844 7.61338C11.2885 6.95673 11.1278 6.28562 10.7378 5.74721L9.68239 4.28236C9.49196 4.01481 9.24963 3.78831 8.96983 3.61637C8.69003 3.44443 8.3785 3.33056 8.05377 3.28153C7.41227 3.18692 6.7592 3.34692 6.23408 3.72736L4.61456 4.87376C4.10011 5.24504 3.6997 5.75275 3.45854 6.33957C3.21738 6.92639 3.14508 7.56895 3.2498 8.19468C3.71209 10.8889 4.79005 13.44 6.39973 15.6494C8.00941 17.8587 10.1074 19.6667 12.5302 20.9325C13.0172 21.1827 13.5567 21.3137 14.1042 21.3146C14.8244 21.3166 15.5262 21.0869 16.1059 20.6595L17.689 19.5677C18.2258 19.1779 18.5858 18.5909 18.6899 17.9357C18.7939 17.2806 18.6336 16.6109 18.244 16.0739L17.1704 14.5818ZM16.8883 18.4486L15.3052 19.5677C14.9974 19.7908 14.6338 19.9243 14.2548 19.9532C13.8757 19.9821 13.4961 19.9053 13.158 19.7315C10.9132 18.5566 8.97167 16.8769 7.48606 14.8245C6.00044 12.7721 5.01127 10.403 4.59637 7.90353C4.5331 7.52807 4.57628 7.1424 4.72101 6.79022C4.86574 6.43805 5.10623 6.13346 5.41523 5.91098L6.98925 4.82827C7.18639 4.68898 7.42118 4.61284 7.66254 4.6099H7.83541C7.98362 4.6328 8.12584 4.68478 8.25388 4.76285C8.38192 4.84092 8.49326 4.94355 8.58148 5.06482L9.65509 6.55697C9.83034 6.80099 9.90192 7.10445 9.85418 7.40107C9.80645 7.69768 9.64329 7.96337 9.40034 8.14009L7.92639 9.21371C7.80348 9.30388 7.71429 9.43261 7.67307 9.57938C7.63184 9.72614 7.64095 9.88248 7.69893 10.0235C8.66187 12.4086 10.1959 14.5206 12.1663 16.174C12.2853 16.2685 12.4328 16.3199 12.5848 16.3199C12.7368 16.3199 12.8843 16.2685 13.0033 16.174L14.4773 15.1095C14.5984 15.0213 14.7358 14.9579 14.8815 14.923C15.0272 14.888 15.1784 14.8822 15.3263 14.9059C15.4743 14.9296 15.6161 14.9823 15.7436 15.0609C15.8712 15.1396 15.9819 15.2427 16.0695 15.3642L17.134 16.8382C17.2243 16.9598 17.2896 17.0981 17.3262 17.2451C17.3628 17.3921 17.3698 17.5449 17.347 17.6946C17.3241 17.8444 17.2718 17.9881 17.1931 18.1175C17.1144 18.2469 17.0108 18.3595 16.8883 18.4486ZM12.9942 6.74803C13.0242 6.65944 13.0722 6.57805 13.1354 6.50907C13.1985 6.44008 13.2753 6.38499 13.3609 6.34733C13.4465 6.30967 13.539 6.29025 13.6325 6.29031C13.726 6.29038 13.8185 6.30992 13.9041 6.3477C14.9411 6.73118 15.8407 7.41422 16.4887 8.31008C17.1367 9.20594 17.5038 10.2742 17.5434 11.3791C17.5484 11.5586 17.4824 11.7328 17.3597 11.8639C17.2371 11.9951 17.0677 12.0726 16.8883 12.0797C16.712 12.0799 16.5424 12.0117 16.4152 11.8896C16.288 11.7675 16.213 11.6008 16.206 11.4246C16.177 10.5921 15.9023 9.78682 15.4166 9.11008C14.9309 8.43333 14.2559 7.9154 13.4764 7.62148C13.3857 7.59865 13.3006 7.5574 13.2265 7.5003C13.1524 7.44319 13.0908 7.37145 13.0455 7.28953C13.0003 7.20762 12.9724 7.11727 12.9636 7.02412C12.9548 6.93096 12.9652 6.83699 12.9942 6.74803ZM20.8007 11.2063C20.8159 11.3869 20.7596 11.5663 20.6439 11.7058C20.5282 11.8454 20.3623 11.9339 20.182 11.9523H20.1183C19.9484 11.951 19.7849 11.8873 19.6591 11.7731C19.5332 11.659 19.4538 11.5026 19.4359 11.3336C19.304 9.86112 18.776 8.45177 17.9077 7.25516C17.0395 6.05854 15.8635 5.1193 14.5046 4.53712C14.3381 4.46593 14.2067 4.33152 14.1393 4.16345C14.0719 3.99538 14.074 3.80742 14.1452 3.64092C14.2164 3.47442 14.3508 3.34302 14.5188 3.27562C14.6869 3.20822 14.8749 3.21035 15.0414 3.28153C16.6302 3.95538 18.0056 5.04897 19.0202 6.44505C20.0348 7.84112 20.6503 9.48702 20.8007 11.2063Z" fill="url(#paint0_linear_2585_66257)"/>
<defs>
<linearGradient id="paint0_linear_2585_66257" x1="12.0031" y1="3.22656" x2="12.0031" y2="21.3146" gradientUnits="userSpaceOnUse">
<stop stop-color="#5243E9"/>
<stop offset="1" stop-color="#2E2683"/>
</linearGradient>
</defs>
</svg>
