<svg width="675" height="226" viewBox="0 0 675 226" fill="none" xmlns="http://www.w3.org/2000/svg">
<path fill-rule="evenodd" clip-rule="evenodd" d="M91.5832 1.23942C88.5555 2.5755 86.5522 4.82055 85.683 7.85216C84.6292 11.5256 85.5645 14.3846 88.9142 17.7344C91.9188 20.7389 91.9808 20.9195 91.9808 26.6741V32.5472L87.4755 33.1095C72.6228 34.9657 58.4915 41.4798 47.445 51.5624C43.4153 55.2406 42.6861 55.5897 38.1864 55.989C25.7649 57.0912 14.2214 67.2414 12.0487 78.9726C11.6399 81.1763 10.6871 82.4647 8.07781 84.3384C5.91544 85.8915 3.88191 88.3346 2.58401 90.9392C0.692835 94.7335 0.523438 95.9033 0.523438 105.138C0.523438 110.673 0.930622 116.418 1.42847 117.906C2.67865 121.639 5.81921 125.671 8.88661 127.482C10.9162 128.678 11.5723 129.7 11.9898 132.311C13.2448 140.158 20.2393 149.104 27.9543 152.731C33.8449 155.5 37.6392 155.959 54.8014 155.98L71.3035 155.999V157.864C71.3035 158.89 71.9302 160.265 72.6952 160.922C74.8162 162.741 94.3356 174.29 95.2884 174.29C96.2562 174.29 112.597 164.643 116.436 161.805C118.087 160.584 119.02 159.213 119.02 158.011V156.127L137.511 155.833C154.545 155.561 156.364 155.394 160.611 153.709C168.857 150.438 176.849 140.733 178.374 132.14C178.737 130.089 179.73 128.729 182.147 126.97C184.152 125.511 186.276 122.907 187.613 120.267C189.669 116.209 189.8 115.322 189.8 105.512C189.8 95.8119 189.652 94.7756 187.69 90.839C186.333 88.1167 184.369 85.7516 182.192 84.2167C179.626 82.4082 178.674 81.1302 178.265 78.9511C176.075 67.274 164.525 57.1024 152.184 55.9834C147.576 55.5659 146.919 55.2382 141.729 50.7711C134.213 44.3023 127.971 40.3879 120.725 37.5973C114.599 35.2385 104.107 32.7302 100.365 32.7302C98.3701 32.7302 98.343 32.6459 98.343 26.4594C98.343 20.6164 98.4814 20.0979 100.369 18.8613C102.917 17.192 105.493 13.0318 105.497 10.5824C105.503 7.03224 103.112 3.44473 99.6083 1.74919C95.717 -0.134831 94.8231 -0.191289 91.5832 1.23942ZM35.9135 65.2532C30.3544 66.6807 25.263 70.8703 22.2839 76.4706C20.9248 79.0259 20.8031 81.4396 20.8031 105.896C20.8031 131.677 20.8588 132.641 22.5193 135.719C24.5282 139.441 27.6433 142.5 31.5394 144.575C34.1718 145.977 37.5135 146.07 93.1005 146.276C157.898 146.517 157.018 146.576 162.983 141.634C164.635 140.265 166.783 137.658 167.754 135.841C169.475 132.623 169.521 131.874 169.521 106.691C169.521 86.8316 169.269 80.1297 168.43 77.7582C166.947 73.5591 162.316 68.6109 157.989 66.6012C154.472 64.9677 153.41 64.9367 96.3548 64.7903C64.4243 64.7076 37.2257 64.9168 35.9135 65.2532ZM51.8191 79.1603C46.5607 80.8455 44.007 82.4901 40.0076 86.7656C33.6994 93.5095 31.4169 101.151 33.1586 109.695C35.0856 119.153 41.8256 127.338 50.2969 130.507C54.4936 132.078 56.2504 132.14 95.8602 132.14H131.608C135.192 132.14 138.727 131.306 141.933 129.704V129.704C147.355 126.995 152.076 122.161 154.923 116.406C156.49 113.238 156.78 111.421 156.787 104.703C156.794 97.618 156.564 96.3129 154.68 92.7421C152.25 88.1382 146.976 82.9792 141.963 80.3047V80.3047C139.692 79.0925 137.159 78.4537 134.584 78.4439L96.7525 78.2998C64.6104 78.1765 54.2678 78.3745 51.8191 79.1603ZM59.014 95.6313C53.4391 100.526 53.4192 108.471 58.9726 112.707C62.5625 115.445 67.0455 116.025 70.8104 114.239C78.3465 110.662 79.5895 101.194 73.2527 95.6298C70.8589 93.5278 69.8266 93.1715 66.1341 93.1715C62.4409 93.1715 61.4094 93.5278 59.014 95.6313ZM119.816 93.7314C117.369 94.6213 114.197 98.3623 113.41 101.285C112.344 105.246 113.625 110.062 116.306 112.17C123.401 117.751 132.465 115.217 134.939 106.962C136.919 100.354 131.241 93.1047 124.19 93.2376C122.44 93.2702 120.472 93.4928 119.816 93.7314Z" fill="url(#paint0_linear_3860_224208)"/>
<path d="M77.3506 205.535L85.022 174.485C85.2639 173.505 86.3449 172.996 87.2544 173.432L94.7438 177.027C95.1789 177.236 95.6853 177.236 96.1204 177.027L103.59 173.442C104.506 173.002 105.593 173.523 105.826 174.512L113.131 205.555C113.253 206.074 113.107 206.619 112.743 207.007L96.5798 224.248C95.9561 224.913 94.902 224.919 94.271 224.261L77.7464 207.017C77.3692 206.624 77.2199 206.065 77.3506 205.535Z" fill="url(#paint1_linear_3860_224208)"/>
<path fill-rule="evenodd" clip-rule="evenodd" d="M534.971 62.4595C517.032 109.158 510.934 125.154 510.934 125.509C510.934 125.734 512.655 125.92 514.757 125.92H518.582L522.035 116.376L525.488 106.833H542.353H559.218L561.85 113.792C566.925 127.21 566.002 125.92 570.527 125.92H574.533L572.906 121.792C572.011 119.522 567.703 107.981 563.332 96.1445C558.961 84.3083 553.513 69.6139 551.226 63.4902L547.066 52.3563L543.049 52.1209L539.032 51.8847L534.971 62.4595ZM583.304 88.8939V125.92H586.891H590.478L590.271 89.138L590.064 52.3563L586.684 52.1121L583.304 51.8672V88.8939ZM535.587 79.9669C531.869 90.1083 528.712 98.8699 528.571 99.4385C528.367 100.256 531.312 100.471 542.753 100.471C551.219 100.471 557.083 100.168 556.927 99.7383C556.782 99.3351 553.62 90.5727 549.902 80.2659C546.184 69.959 542.964 61.5267 542.745 61.5274C542.526 61.5282 539.305 69.8262 535.587 79.9669Z" fill="#283B4B"/>
<path fill-rule="evenodd" clip-rule="evenodd" d="M418.681 83.1914V124.148H424.645H430.61V112.219C430.61 105.658 430.878 100.29 431.206 100.29C431.535 100.29 436.455 105.447 442.141 111.748C447.828 118.05 452.838 123.34 453.275 123.502C453.713 123.665 457.406 123.608 461.483 123.377L468.895 122.955L456.138 109.436C449.122 102 443.385 95.558 443.392 95.1206C443.397 94.6832 448.924 88.4203 455.674 81.2032L467.946 68.081L460.293 67.852L452.64 67.6229L445.81 75.0095C442.054 79.0718 437.104 84.3644 434.811 86.7701L430.642 91.1442L430.626 66.6893L430.61 42.2344H424.645H418.681V83.1914ZM479.122 44.4031C474.536 45.6843 471.965 48.8702 471.965 53.2681C471.965 56.551 475.344 60.3422 478.861 61.0014C486.986 62.526 492.626 52.5945 486.763 47.0872C484.764 45.2087 480.987 43.8822 479.122 44.4031ZM252.462 46.9536C242.581 49.9598 235.737 60.2674 236.798 70.5464C237.673 79.0225 241.933 85.3903 249.061 88.8776C253.051 90.8301 254.577 91.0957 263.141 91.3311C274.109 91.6333 277.133 92.6592 279.067 96.735C280.597 99.9583 280.621 101.962 279.176 105.423C276.979 110.679 275.764 110.981 254.947 111.424L236.277 111.821L236.351 117.786L236.425 123.751H255.778C272.471 123.751 275.64 123.555 278.821 122.327C283.459 120.537 287.662 116.493 290.41 111.175C292.181 107.748 292.536 106.041 292.508 101.085C292.467 94.0366 291.122 90.5056 286.612 85.6138C281.456 80.019 277.004 78.5453 265.051 78.477C253.57 78.4117 251.423 77.5449 249.367 72.1441C247.973 68.4803 249.194 63.6577 252.229 60.8448C254.218 59.0013 254.599 58.9607 271.853 58.7516L289.447 58.5376L289.68 52.3742L289.912 46.2108L272.183 46.2792C262.433 46.3166 253.558 46.6204 252.462 46.9536ZM320.066 67.6333C315.265 69.103 309.68 72.6714 306.304 76.4259C301.21 82.0915 299.12 87.8286 299.058 96.3135C299.014 102.276 299.298 103.683 301.46 108.243C304.446 114.537 309.164 119.388 315.164 122.334C319.178 124.305 320.533 124.546 327.621 124.546C335.651 124.546 336.82 124.223 345.656 119.567C345.953 119.41 346.311 120.288 346.452 121.517C346.705 123.728 346.764 123.751 352.275 123.751H357.842L358.059 108.729C358.305 91.6468 357.469 86.6445 353.281 80.1168C350.193 75.3037 342.765 69.7002 337.341 68.089C333.125 66.8372 323.497 66.5827 320.066 67.6333ZM377.417 68.8771C363.471 73.2265 362.329 93.4998 375.64 100.454C379.486 102.463 380.67 102.676 388.001 102.676C393.486 102.676 396.576 103.018 397.553 103.732C399.397 105.08 399.411 108.633 397.582 110.655C396.272 112.102 395.074 112.219 381.577 112.219H366.987V118.184V124.148L382.297 124.131C399.599 124.111 401.931 123.553 406.516 118.33C412.127 111.94 412.097 102.53 406.446 96.4153C402.308 91.9371 398.784 90.7839 389.18 90.764C379.56 90.7441 378.121 89.9894 378.121 84.9633C378.121 80.0572 379.557 79.6126 395.397 79.6126H409.137V73.648V67.6834L395.021 67.7367C385.45 67.7725 379.782 68.1398 377.417 68.8771ZM474.624 75.4374C474.906 79.7017 475.139 92.4317 475.142 103.726L475.146 124.26L480.712 124.005L486.277 123.751L486.279 95.717L486.28 67.6834H480.195H474.11L474.624 75.4374ZM324.313 79.5792C317.094 81.2986 312.007 87.2298 311.497 94.5201C311.226 98.3924 311.528 99.7658 313.462 103.444C321.373 118.496 345.41 112.68 345.497 95.6916C345.533 88.6637 340.453 82.1233 333.311 80.0023C328.981 78.7163 328.105 78.675 324.313 79.5792Z" fill="black"/>
<path fill-rule="evenodd" clip-rule="evenodd" d="M418.681 83.1914V124.148H424.645H430.61V112.219C430.61 105.658 430.878 100.29 431.206 100.29C431.535 100.29 436.455 105.447 442.141 111.748C447.828 118.05 452.838 123.34 453.275 123.502C453.713 123.665 457.406 123.608 461.483 123.377L468.895 122.955L456.138 109.436C449.122 102 443.385 95.558 443.392 95.1206C443.397 94.6832 448.924 88.4203 455.674 81.2032L467.946 68.081L460.293 67.852L452.64 67.6229L445.81 75.0095C442.054 79.0718 437.104 84.3644 434.811 86.7701L430.642 91.1442L430.626 66.6893L430.61 42.2344H424.645H418.681V83.1914ZM479.122 44.4031C474.536 45.6843 471.965 48.8702 471.965 53.2681C471.965 56.551 475.344 60.3422 478.861 61.0014C486.986 62.526 492.626 52.5945 486.763 47.0872C484.764 45.2087 480.987 43.8822 479.122 44.4031ZM252.462 46.9536C242.581 49.9598 235.737 60.2674 236.798 70.5464C237.673 79.0225 241.933 85.3903 249.061 88.8776C253.051 90.8301 254.577 91.0957 263.141 91.3311C274.109 91.6333 277.133 92.6592 279.067 96.735C280.597 99.9583 280.621 101.962 279.176 105.423C276.979 110.679 275.764 110.981 254.947 111.424L236.277 111.821L236.351 117.786L236.425 123.751H255.778C272.471 123.751 275.64 123.555 278.821 122.327C283.459 120.537 287.662 116.493 290.41 111.175C292.181 107.748 292.536 106.041 292.508 101.085C292.467 94.0366 291.122 90.5056 286.612 85.6138C281.456 80.019 277.004 78.5453 265.051 78.477C253.57 78.4117 251.423 77.5449 249.367 72.1441C247.973 68.4803 249.194 63.6577 252.229 60.8448C254.218 59.0013 254.599 58.9607 271.853 58.7516L289.447 58.5376L289.68 52.3742L289.912 46.2108L272.183 46.2792C262.433 46.3166 253.558 46.6204 252.462 46.9536ZM320.066 67.6333C315.265 69.103 309.68 72.6714 306.304 76.4259C301.21 82.0915 299.12 87.8286 299.058 96.3135C299.014 102.276 299.298 103.683 301.46 108.243C304.446 114.537 309.164 119.388 315.164 122.334C319.178 124.305 320.533 124.546 327.621 124.546C335.651 124.546 336.82 124.223 345.656 119.567C345.953 119.41 346.311 120.288 346.452 121.517C346.705 123.728 346.764 123.751 352.275 123.751H357.842L358.059 108.729C358.305 91.6468 357.469 86.6445 353.281 80.1168C350.193 75.3037 342.765 69.7002 337.341 68.089C333.125 66.8372 323.497 66.5827 320.066 67.6333ZM377.417 68.8771C363.471 73.2265 362.329 93.4998 375.64 100.454C379.486 102.463 380.67 102.676 388.001 102.676C393.486 102.676 396.576 103.018 397.553 103.732C399.397 105.08 399.411 108.633 397.582 110.655C396.272 112.102 395.074 112.219 381.577 112.219H366.987V118.184V124.148L382.297 124.131C399.599 124.111 401.931 123.553 406.516 118.33C412.127 111.94 412.097 102.53 406.446 96.4153C402.308 91.9371 398.784 90.7839 389.18 90.764C379.56 90.7441 378.121 89.9894 378.121 84.9633C378.121 80.0572 379.557 79.6126 395.397 79.6126H409.137V73.648V67.6834L395.021 67.7367C385.45 67.7725 379.782 68.1398 377.417 68.8771ZM474.624 75.4374C474.906 79.7017 475.139 92.4317 475.142 103.726L475.146 124.26L480.712 124.005L486.277 123.751L486.279 95.717L486.28 67.6834H480.195H474.11L474.624 75.4374ZM324.313 79.5792C317.094 81.2986 312.007 87.2298 311.497 94.5201C311.226 98.3924 311.528 99.7658 313.462 103.444C321.373 118.496 345.41 112.68 345.497 95.6916C345.533 88.6637 340.453 82.1233 333.311 80.0023C328.981 78.7163 328.105 78.675 324.313 79.5792Z" fill="url(#paint2_linear_3860_224208)"/>
<path d="M636.154 101.334L640.107 111.366C640.189 111.573 640.33 111.75 640.514 111.875C640.698 112 640.915 112.066 641.137 112.066C641.359 112.066 641.576 112 641.759 111.875C641.943 111.75 642.085 111.573 642.167 111.366L646.12 101.334C646.822 99.5579 647.881 97.9449 649.231 96.5945C650.582 95.2441 652.195 94.1851 653.971 93.4829L663.936 89.5298C664.143 89.4482 664.32 89.3063 664.445 89.1227C664.57 88.939 664.637 88.7221 664.637 88.5C664.637 88.2779 664.57 88.061 664.445 87.8773C664.32 87.6937 664.143 87.5518 663.936 87.4702L653.971 83.5171C652.194 82.8166 650.58 81.7582 649.229 80.4076C647.879 79.057 646.82 77.4431 646.12 75.6662L642.167 65.7003C642.085 65.4938 641.943 65.3166 641.759 65.1917C641.576 65.0668 641.359 65 641.137 65C640.915 65 640.698 65.0668 640.514 65.1917C640.33 65.3166 640.189 65.4938 640.107 65.7003L636.154 75.6662C635.453 77.4431 634.395 79.057 633.044 80.4076C631.694 81.7582 630.08 82.8166 628.303 83.5171L618.337 87.4702C618.13 87.5518 617.953 87.6937 617.828 87.8773C617.703 88.061 617.637 88.2779 617.637 88.5C617.637 88.7221 617.703 88.939 617.828 89.1227C617.953 89.3063 618.13 89.4482 618.337 89.5298L628.303 93.4829C630.079 94.1851 631.692 95.2441 633.042 96.5945C634.393 97.9449 635.452 99.5579 636.154 101.334Z" fill="white"/>
<path d="M636.154 101.334L640.107 111.366C640.189 111.573 640.33 111.75 640.514 111.875C640.698 112 640.915 112.066 641.137 112.066C641.359 112.066 641.576 112 641.759 111.875C641.943 111.75 642.085 111.573 642.167 111.366L646.12 101.334C646.822 99.5579 647.881 97.9449 649.231 96.5945C650.582 95.2441 652.195 94.1851 653.971 93.4829L663.936 89.5298C664.143 89.4482 664.32 89.3063 664.445 89.1227C664.57 88.939 664.637 88.7221 664.637 88.5C664.637 88.2779 664.57 88.061 664.445 87.8773C664.32 87.6937 664.143 87.5518 663.936 87.4702L653.971 83.5171C652.194 82.8166 650.58 81.7582 649.229 80.4076C647.879 79.057 646.82 77.4431 646.12 75.6662L642.167 65.7003C642.085 65.4938 641.943 65.3166 641.759 65.1917C641.576 65.0668 641.359 65 641.137 65C640.915 65 640.698 65.0668 640.514 65.1917C640.33 65.3166 640.189 65.4938 640.107 65.7003L636.154 75.6662C635.453 77.4431 634.395 79.057 633.044 80.4076C631.694 81.7582 630.08 82.8166 628.303 83.5171L618.337 87.4702C618.13 87.5518 617.953 87.6937 617.828 87.8773C617.703 88.061 617.637 88.2779 617.637 88.5C617.637 88.7221 617.703 88.939 617.828 89.1227C617.953 89.3063 618.13 89.4482 618.337 89.5298L628.303 93.4829C630.079 94.1851 631.692 95.2441 633.042 96.5945C634.393 97.9449 635.452 99.5579 636.154 101.334Z" fill="#5243E9"/>
<path d="M245.391 174.451C243.963 174.451 242.675 174.209 241.527 173.723C240.389 173.238 239.446 172.547 238.699 171.651C237.962 170.746 237.481 169.677 237.257 168.445L239.833 168.039C240.16 169.309 240.837 170.303 241.863 171.021C242.899 171.731 244.117 172.085 245.517 172.085C246.423 172.085 247.239 171.945 247.967 171.665C248.705 171.376 249.288 170.965 249.717 170.433C250.147 169.901 250.361 169.271 250.361 168.543C250.361 168.095 250.282 167.713 250.123 167.395C249.974 167.069 249.764 166.793 249.493 166.569C249.232 166.336 248.933 166.14 248.597 165.981C248.261 165.823 247.911 165.692 247.547 165.589L242.409 164.063C241.849 163.895 241.308 163.685 240.785 163.433C240.263 163.172 239.796 162.85 239.385 162.467C238.975 162.075 238.648 161.609 238.405 161.067C238.163 160.517 238.041 159.868 238.041 159.121C238.041 157.927 238.349 156.909 238.965 156.069C239.591 155.22 240.435 154.571 241.499 154.123C242.563 153.675 243.763 153.456 245.097 153.465C246.451 153.475 247.659 153.717 248.723 154.193C249.797 154.66 250.683 155.332 251.383 156.209C252.093 157.087 252.569 158.137 252.811 159.359L250.165 159.821C250.025 159 249.713 158.295 249.227 157.707C248.751 157.11 248.154 156.653 247.435 156.335C246.717 156.009 245.928 155.841 245.069 155.831C244.248 155.822 243.506 155.953 242.843 156.223C242.181 156.494 241.653 156.872 241.261 157.357C240.869 157.833 240.673 158.384 240.673 159.009C240.673 159.625 240.851 160.125 241.205 160.507C241.56 160.881 241.994 161.179 242.507 161.403C243.03 161.618 243.539 161.795 244.033 161.935L247.869 163.041C248.308 163.163 248.812 163.331 249.381 163.545C249.96 163.76 250.52 164.063 251.061 164.455C251.603 164.838 252.051 165.351 252.405 165.995C252.76 166.63 252.937 167.433 252.937 168.403C252.937 169.374 252.741 170.237 252.349 170.993C251.967 171.749 251.43 172.384 250.739 172.897C250.049 173.401 249.246 173.784 248.331 174.045C247.417 174.316 246.437 174.451 245.391 174.451ZM259.234 174.031V153.871H261.726V174.031H259.234ZM269.007 174.031V153.871H271.275L278.891 169.929L286.465 153.871H288.761V174.017H286.395V159.345L279.549 174.031H278.219L271.373 159.345V174.031H269.007ZM295.766 174.031V153.871H303.732C303.928 153.871 304.162 153.881 304.432 153.899C304.703 153.909 304.964 153.937 305.216 153.983C306.308 154.151 307.223 154.525 307.96 155.103C308.707 155.682 309.267 156.415 309.64 157.301C310.014 158.179 310.2 159.154 310.2 160.227C310.2 161.291 310.009 162.267 309.626 163.153C309.253 164.031 308.693 164.763 307.946 165.351C307.209 165.93 306.299 166.303 305.216 166.471C304.964 166.509 304.703 166.537 304.432 166.555C304.162 166.574 303.928 166.583 303.732 166.583H298.258V174.031H295.766ZM298.258 164.217H303.648C303.826 164.217 304.026 164.208 304.25 164.189C304.484 164.171 304.703 164.138 304.908 164.091C305.552 163.942 306.075 163.671 306.476 163.279C306.887 162.878 307.186 162.411 307.372 161.879C307.559 161.338 307.652 160.787 307.652 160.227C307.652 159.667 307.559 159.121 307.372 158.589C307.186 158.048 306.887 157.577 306.476 157.175C306.075 156.774 305.552 156.503 304.908 156.363C304.703 156.307 304.484 156.275 304.25 156.265C304.026 156.247 303.826 156.237 303.648 156.237H298.258V164.217ZM316.353 174.031V153.871H318.845V171.665H328.197V174.031H316.353ZM333.925 174.031V153.871H336.417V174.031H333.925ZM343.698 174.031V153.871H355.458V156.363H346.19V162.705H353.778V165.197H346.19V174.031H343.698ZM365.881 174.031V165.645L359.091 153.871H361.989L367.141 162.789L372.279 153.871H375.177L368.401 165.645V174.031H365.881ZM379.778 174.031V153.871H382.27V174.031H379.778ZM389.551 174.031V153.871H392.071L402.585 169.621V153.871H405.105V174.031H402.585L392.071 158.267V174.031H389.551ZM420.262 174.451C418.881 174.451 417.621 174.209 416.482 173.723C415.343 173.238 414.363 172.543 413.542 171.637C412.721 170.723 412.086 169.621 411.638 168.333C411.199 167.036 410.98 165.575 410.98 163.951C410.98 161.805 411.363 159.947 412.128 158.379C412.893 156.811 413.971 155.603 415.362 154.753C416.753 153.895 418.386 153.465 420.262 153.465C422.521 153.465 424.341 153.993 425.722 155.047C427.103 156.093 428.055 157.525 428.578 159.345L426.058 159.863C425.638 158.641 424.947 157.665 423.986 156.937C423.025 156.209 421.825 155.845 420.388 155.845C418.885 155.836 417.635 156.172 416.636 156.853C415.647 157.525 414.9 158.473 414.396 159.695C413.892 160.918 413.635 162.337 413.626 163.951C413.617 165.557 413.864 166.966 414.368 168.179C414.872 169.393 415.623 170.345 416.622 171.035C417.63 171.717 418.885 172.062 420.388 172.071C421.685 172.081 422.777 171.833 423.664 171.329C424.551 170.825 425.237 170.097 425.722 169.145C426.207 168.193 426.501 167.05 426.604 165.715H422.32V163.657H429.236C429.264 163.844 429.278 164.068 429.278 164.329C429.287 164.581 429.292 164.754 429.292 164.847C429.292 166.686 428.947 168.333 428.256 169.789C427.575 171.236 426.562 172.375 425.218 173.205C423.883 174.036 422.231 174.451 420.262 174.451ZM442.454 174.031L449.202 153.871H452.674L459.422 174.031H456.832L450.518 155.327H451.302L445.044 174.031H442.454ZM445.702 169.313V166.975H456.174V169.313H445.702ZM465.288 174.031V153.871H467.78V174.031H465.288ZM482.346 174.031L489.094 153.871H492.566L499.314 174.031H496.724L490.41 155.327H491.194L484.936 174.031H482.346ZM485.594 169.313V166.975H496.066V169.313H485.594ZM511.507 174.451C510.079 174.451 508.791 174.209 507.643 173.723C506.505 173.238 505.562 172.547 504.815 171.651C504.078 170.746 503.597 169.677 503.373 168.445L505.949 168.039C506.276 169.309 506.953 170.303 507.979 171.021C509.015 171.731 510.233 172.085 511.633 172.085C512.539 172.085 513.355 171.945 514.083 171.665C514.821 171.376 515.404 170.965 515.833 170.433C516.263 169.901 516.477 169.271 516.477 168.543C516.477 168.095 516.398 167.713 516.239 167.395C516.09 167.069 515.88 166.793 515.609 166.569C515.348 166.336 515.049 166.14 514.713 165.981C514.377 165.823 514.027 165.692 513.663 165.589L508.525 164.063C507.965 163.895 507.424 163.685 506.901 163.433C506.379 163.172 505.912 162.85 505.501 162.467C505.091 162.075 504.764 161.609 504.521 161.067C504.279 160.517 504.157 159.868 504.157 159.121C504.157 157.927 504.465 156.909 505.081 156.069C505.707 155.22 506.551 154.571 507.615 154.123C508.679 153.675 509.879 153.456 511.213 153.465C512.567 153.475 513.775 153.717 514.839 154.193C515.913 154.66 516.799 155.332 517.499 156.209C518.209 157.087 518.685 158.137 518.927 159.359L516.281 159.821C516.141 159 515.829 158.295 515.343 157.707C514.867 157.11 514.27 156.653 513.551 156.335C512.833 156.009 512.044 155.841 511.185 155.831C510.364 155.822 509.622 155.953 508.959 156.223C508.297 156.494 507.769 156.872 507.377 157.357C506.985 157.833 506.789 158.384 506.789 159.009C506.789 159.625 506.967 160.125 507.321 160.507C507.676 160.881 508.11 161.179 508.623 161.403C509.146 161.618 509.655 161.795 510.149 161.935L513.985 163.041C514.424 163.163 514.928 163.331 515.497 163.545C516.076 163.76 516.636 164.063 517.177 164.455C517.719 164.838 518.167 165.351 518.521 165.995C518.876 166.63 519.053 167.433 519.053 168.403C519.053 169.374 518.857 170.237 518.465 170.993C518.083 171.749 517.546 172.384 516.855 172.897C516.165 173.401 515.362 173.784 514.447 174.045C513.533 174.316 512.553 174.451 511.507 174.451ZM532.634 174.451C531.206 174.451 529.918 174.209 528.77 173.723C527.631 173.238 526.689 172.547 525.942 171.651C525.205 170.746 524.724 169.677 524.5 168.445L527.076 168.039C527.403 169.309 528.079 170.303 529.106 171.021C530.142 171.731 531.36 172.085 532.76 172.085C533.665 172.085 534.482 171.945 535.21 171.665C535.947 171.376 536.531 170.965 536.96 170.433C537.389 169.901 537.604 169.271 537.604 168.543C537.604 168.095 537.525 167.713 537.366 167.395C537.217 167.069 537.007 166.793 536.736 166.569C536.475 166.336 536.176 166.14 535.84 165.981C535.504 165.823 535.154 165.692 534.79 165.589L529.652 164.063C529.092 163.895 528.551 163.685 528.028 163.433C527.505 163.172 527.039 162.85 526.628 162.467C526.217 162.075 525.891 161.609 525.648 161.067C525.405 160.517 525.284 159.868 525.284 159.121C525.284 157.927 525.592 156.909 526.208 156.069C526.833 155.22 527.678 154.571 528.742 154.123C529.806 153.675 531.005 153.456 532.34 153.465C533.693 153.475 534.902 153.717 535.966 154.193C537.039 154.66 537.926 155.332 538.626 156.209C539.335 157.087 539.811 158.137 540.054 159.359L537.408 159.821C537.268 159 536.955 158.295 536.47 157.707C535.994 157.11 535.397 156.653 534.678 156.335C533.959 156.009 533.171 155.841 532.312 155.831C531.491 155.822 530.749 155.953 530.086 156.223C529.423 156.494 528.896 156.872 528.504 157.357C528.112 157.833 527.916 158.384 527.916 159.009C527.916 159.625 528.093 160.125 528.448 160.507C528.803 160.881 529.237 161.179 529.75 161.403C530.273 161.618 530.781 161.795 531.276 161.935L535.112 163.041C535.551 163.163 536.055 163.331 536.624 163.545C537.203 163.76 537.763 164.063 538.304 164.455C538.845 164.838 539.293 165.351 539.648 165.995C540.003 166.63 540.18 167.433 540.18 168.403C540.18 169.374 539.984 170.237 539.592 170.993C539.209 171.749 538.673 172.384 537.982 172.897C537.291 173.401 536.489 173.784 535.574 174.045C534.659 174.316 533.679 174.451 532.634 174.451ZM546.477 174.031V153.871H548.969V174.031H546.477ZM563.404 174.451C561.976 174.451 560.688 174.209 559.54 173.723C558.401 173.238 557.458 172.547 556.712 171.651C555.974 170.746 555.494 169.677 555.27 168.445L557.846 168.039C558.172 169.309 558.849 170.303 559.876 171.021C560.912 171.731 562.13 172.085 563.53 172.085C564.435 172.085 565.252 171.945 565.98 171.665C566.717 171.376 567.3 170.965 567.73 170.433C568.159 169.901 568.374 169.271 568.374 168.543C568.374 168.095 568.294 167.713 568.136 167.395C567.986 167.069 567.776 166.793 567.506 166.569C567.244 166.336 566.946 166.14 566.61 165.981C566.274 165.823 565.924 165.692 565.56 165.589L560.422 164.063C559.862 163.895 559.32 163.685 558.798 163.433C558.275 163.172 557.808 162.85 557.398 162.467C556.987 162.075 556.66 161.609 556.418 161.067C556.175 160.517 556.054 159.868 556.054 159.121C556.054 157.927 556.362 156.909 556.978 156.069C557.603 155.22 558.448 154.571 559.512 154.123C560.576 153.675 561.775 153.456 563.11 153.465C564.463 153.475 565.672 153.717 566.736 154.193C567.809 154.66 568.696 155.332 569.396 156.209C570.105 157.087 570.581 158.137 570.824 159.359L568.178 159.821C568.038 159 567.725 158.295 567.24 157.707C566.764 157.11 566.166 156.653 565.448 156.335C564.729 156.009 563.94 155.841 563.082 155.831C562.26 155.822 561.518 155.953 560.856 156.223C560.193 156.494 559.666 156.872 559.274 157.357C558.882 157.833 558.686 158.384 558.686 159.009C558.686 159.625 558.863 160.125 559.218 160.507C559.572 160.881 560.006 161.179 560.52 161.403C561.042 161.618 561.551 161.795 562.046 161.935L565.882 163.041C566.32 163.163 566.824 163.331 567.394 163.545C567.972 163.76 568.532 164.063 569.074 164.455C569.615 164.838 570.063 165.351 570.418 165.995C570.772 166.63 570.95 167.433 570.95 168.403C570.95 169.374 570.754 170.237 570.362 170.993C569.979 171.749 569.442 172.384 568.752 172.897C568.061 173.401 567.258 173.784 566.344 174.045C565.429 174.316 564.449 174.451 563.404 174.451ZM582.16 174.031V156.237H575.286V153.871H591.526V156.237H584.652V174.031H582.16ZM594.888 174.031L601.636 153.871H605.108L611.856 174.031H609.266L602.952 155.327H603.736L597.478 174.031H594.888ZM598.136 169.313V166.975H608.608V169.313H598.136ZM617.443 174.031V153.871H619.963L630.477 169.621V153.871H632.997V174.031H630.477L619.963 158.267V174.031H617.443ZM645.185 174.031V156.237H638.311V153.871H654.551V156.237H647.677V174.031H645.185ZM667.014 174.451C665.586 174.451 664.298 174.209 663.15 173.723C662.012 173.238 661.069 172.547 660.322 171.651C659.585 170.746 659.104 169.677 658.88 168.445L661.456 168.039C661.783 169.309 662.46 170.303 663.486 171.021C664.522 171.731 665.74 172.085 667.14 172.085C668.046 172.085 668.862 171.945 669.59 171.665C670.328 171.376 670.911 170.965 671.34 170.433C671.77 169.901 671.984 169.271 671.984 168.543C671.984 168.095 671.905 167.713 671.746 167.395C671.597 167.069 671.387 166.793 671.116 166.569C670.855 166.336 670.556 166.14 670.22 165.981C669.884 165.823 669.534 165.692 669.17 165.589L664.032 164.063C663.472 163.895 662.931 163.685 662.408 163.433C661.886 163.172 661.419 162.85 661.008 162.467C660.598 162.075 660.271 161.609 660.028 161.067C659.786 160.517 659.664 159.868 659.664 159.121C659.664 157.927 659.972 156.909 660.588 156.069C661.214 155.22 662.058 154.571 663.122 154.123C664.186 153.675 665.386 153.456 666.72 153.465C668.074 153.475 669.282 153.717 670.346 154.193C671.42 154.66 672.306 155.332 673.006 156.209C673.716 157.087 674.192 158.137 674.434 159.359L671.788 159.821C671.648 159 671.336 158.295 670.85 157.707C670.374 157.11 669.777 156.653 669.058 156.335C668.34 156.009 667.551 155.841 666.692 155.831C665.871 155.822 665.129 155.953 664.466 156.223C663.804 156.494 663.276 156.872 662.884 157.357C662.492 157.833 662.296 158.384 662.296 159.009C662.296 159.625 662.474 160.125 662.828 160.507C663.183 160.881 663.617 161.179 664.13 161.403C664.653 161.618 665.162 161.795 665.656 161.935L669.492 163.041C669.931 163.163 670.435 163.331 671.004 163.545C671.583 163.76 672.143 164.063 672.684 164.455C673.226 164.838 673.674 165.351 674.028 165.995C674.383 166.63 674.56 167.433 674.56 168.403C674.56 169.374 674.364 170.237 673.972 170.993C673.59 171.749 673.053 172.384 672.362 172.897C671.672 173.401 670.869 173.784 669.954 174.045C669.04 174.316 668.06 174.451 667.014 174.451Z" fill="#64748B"/>
<defs>
<linearGradient id="paint0_linear_3860_224208" x1="64.6775" y1="50.6239" x2="95.1619" y2="202.073" gradientUnits="userSpaceOnUse">
<stop stop-color="#5243E9"/>
<stop offset="1" stop-color="#482683"/>
</linearGradient>
<linearGradient id="paint1_linear_3860_224208" x1="95.2333" y1="233.914" x2="81.3364" y2="190.476" gradientUnits="userSpaceOnUse">
<stop stop-color="#5243E9"/>
<stop offset="1" stop-color="#482683"/>
</linearGradient>
<linearGradient id="paint2_linear_3860_224208" x1="321.998" y1="66.0611" x2="327.28" y2="140.21" gradientUnits="userSpaceOnUse">
<stop stop-color="#5243E9"/>
<stop offset="1" stop-color="#482683"/>
</linearGradient>
</defs>
</svg>
