<svg width="675" height="226" viewBox="0 0 675 226" fill="none" xmlns="http://www.w3.org/2000/svg">
<path fill-rule="evenodd" clip-rule="evenodd" d="M91.8605 1.23942C88.8329 2.5755 86.8295 4.82055 85.9603 7.85216C84.9066 11.5256 85.8418 14.3846 89.1915 17.7344C92.1961 20.7389 92.2581 20.9195 92.2581 26.6741V32.5472L87.7529 33.1095C72.9002 34.9657 58.7688 41.4798 47.7224 51.5624C43.6927 55.2406 42.9634 55.5897 38.4637 55.989C26.0422 57.0912 14.4987 67.2414 12.326 78.9726C11.9172 81.1763 10.9645 82.4647 8.35515 84.3384C6.19278 85.8915 4.15926 88.3346 2.86136 90.9392C0.970179 94.7335 0.800781 95.9033 0.800781 105.138C0.800781 110.673 1.20797 116.418 1.70581 117.906C2.95599 121.639 6.09655 125.671 9.16395 127.482C11.1935 128.678 11.8496 129.7 12.2671 132.311C13.5221 140.158 20.5166 149.104 28.2316 152.731C34.1223 155.5 37.9166 155.959 55.0787 155.98L71.5808 155.999V157.864C71.5808 158.89 72.2075 160.265 72.9726 160.922C75.0936 162.741 94.613 174.29 95.5657 174.29C96.5336 174.29 112.874 164.643 116.713 161.805C118.364 160.584 119.298 159.213 119.298 158.011V156.127L137.788 155.833C154.822 155.561 156.641 155.394 160.889 153.709C169.134 150.438 177.127 140.733 178.651 132.14C179.015 130.089 180.007 128.729 182.424 126.97C184.43 125.511 186.553 122.907 187.891 120.267C189.947 116.209 190.078 115.322 190.078 105.512C190.078 95.8119 189.929 94.7756 187.967 90.839C186.61 88.1167 184.647 85.7516 182.469 84.2167C179.904 82.4082 178.951 81.1302 178.542 78.9511C176.352 67.274 164.802 57.1024 152.461 55.9834C147.853 55.5659 147.196 55.2382 142.006 50.7711C134.491 44.3023 128.249 40.3879 121.003 37.5973C114.877 35.2385 104.385 32.7302 100.642 32.7302C98.6474 32.7302 98.6204 32.6459 98.6204 26.4594C98.6204 20.6164 98.7587 20.0979 100.647 18.8613C103.194 17.192 105.771 13.0318 105.775 10.5824C105.78 7.03224 103.389 3.44473 99.8857 1.74919C95.9944 -0.134831 95.1005 -0.191289 91.8605 1.23942ZM36.1908 65.2532C30.6318 66.6807 25.5404 70.8703 22.5613 76.4706C21.2021 79.0259 21.0805 81.4396 21.0805 105.896C21.0805 131.677 21.1361 132.641 22.7967 135.719C24.8055 139.441 27.9207 142.5 31.8168 144.575C34.4491 145.977 37.7909 146.07 93.3779 146.276C158.175 146.517 157.295 146.576 163.26 141.634C164.913 140.265 167.06 137.658 168.032 135.841C169.753 132.623 169.798 131.874 169.798 106.691C169.798 86.8316 169.546 80.1297 168.708 77.7582C167.225 73.5591 162.594 68.6109 158.266 66.6012C154.75 64.9677 153.687 64.9367 96.6322 64.7903C64.7016 64.7076 37.503 64.9168 36.1908 65.2532ZM52.0964 79.1603C46.838 80.8455 44.2844 82.4901 40.2849 86.7656C33.9767 93.5095 31.6943 101.151 33.436 109.695C35.3629 119.153 42.1029 127.338 50.5743 130.507C54.771 132.078 56.5277 132.14 96.1375 132.14H131.885C135.47 132.14 139.005 131.306 142.211 129.704V129.704C147.632 126.995 152.354 122.161 155.2 116.406C156.767 113.238 157.057 111.421 157.064 104.703C157.071 97.618 156.841 96.3129 154.957 92.7421C152.528 88.1382 147.253 82.9792 142.241 80.3047V80.3047C139.969 79.0925 137.436 78.4537 134.862 78.4439L97.0298 78.2998C64.8877 78.1765 54.5451 78.3745 52.0964 79.1603ZM59.2913 95.6313C53.7164 100.526 53.6965 108.471 59.25 112.707C62.8399 115.445 67.3229 116.025 71.0878 114.239C78.6238 110.662 79.8669 101.194 73.5301 95.6298C71.1363 93.5278 70.104 93.1715 66.4115 93.1715C62.7182 93.1715 61.6867 93.5278 59.2913 95.6313ZM120.093 93.7314C117.647 94.6213 114.474 98.3623 113.688 101.285C112.621 105.246 113.902 110.062 116.583 112.17C123.678 117.751 132.743 115.217 135.216 106.962C137.196 100.354 131.518 93.1047 124.467 93.2376C122.717 93.2702 120.749 93.4928 120.093 93.7314Z" fill="white"/>
<path d="M77.628 205.534L85.2993 174.483C85.5413 173.504 86.6222 172.994 87.5317 173.431L95.0212 177.026C95.4563 177.235 95.9626 177.235 96.3977 177.026L103.867 173.44C104.783 173.001 105.871 173.521 106.104 174.51L113.408 205.554C113.53 206.072 113.384 206.617 113.02 207.006L96.8571 224.246C96.2335 224.912 95.1793 224.917 94.5484 224.259L78.0237 207.016C77.6466 206.622 77.4972 206.063 77.628 205.534Z" fill="white"/>
<path fill-rule="evenodd" clip-rule="evenodd" d="M535.248 62.4595C517.309 109.158 511.211 125.154 511.211 125.509C511.211 125.734 512.932 125.92 515.035 125.92H518.859L522.312 116.376L525.765 106.833H542.63H559.496L562.127 113.792C567.202 127.21 566.279 125.92 570.805 125.92H574.81L573.183 121.792C572.289 119.522 567.981 107.981 563.61 96.1445C559.239 84.3083 553.79 69.6139 551.503 63.4902L547.343 52.3563L543.327 52.1209L539.31 51.8847L535.248 62.4595ZM583.582 88.8939V125.92H587.168H590.755L590.548 89.138L590.341 52.3563L586.961 52.1121L583.582 51.8672V88.8939ZM535.865 79.9669C532.147 90.1083 528.989 98.8699 528.848 99.4385C528.644 100.256 531.589 100.471 543.03 100.471C551.496 100.471 557.36 100.168 557.204 99.7383C557.059 99.3351 553.898 90.5727 550.18 80.2659C546.462 69.959 543.241 61.5267 543.022 61.5274C542.803 61.5282 539.583 69.8262 535.865 79.9669Z" fill="white"/>
<path fill-rule="evenodd" clip-rule="evenodd" d="M418.958 83.1914V124.148H424.923H430.887V112.219C430.887 105.658 431.155 100.29 431.484 100.29C431.812 100.29 436.733 105.447 442.419 111.748C448.105 118.05 453.115 123.34 453.553 123.502C453.99 123.665 457.683 123.608 461.76 123.377L469.172 122.955L456.415 109.436C449.399 102 443.663 95.558 443.669 95.1206C443.675 94.6832 449.201 88.4203 455.951 81.2032L468.223 68.081L460.57 67.852L452.917 67.6229L446.087 75.0095C442.331 79.0718 437.382 84.3644 435.089 86.7701L430.919 91.1442L430.903 66.6893L430.887 42.2344H424.923H418.958V83.1914ZM479.399 44.4031C474.814 45.6843 472.242 48.8702 472.242 53.2681C472.242 56.551 475.622 60.3422 479.139 61.0014C487.263 62.526 492.903 52.5945 487.04 47.0872C485.041 45.2087 481.264 43.8822 479.399 44.4031ZM252.739 46.9536C242.858 49.9598 236.015 60.2674 237.076 70.5464C237.95 79.0225 242.21 85.3903 249.339 88.8776C253.328 90.8301 254.854 91.0957 263.418 91.3311C274.386 91.6333 277.41 92.6592 279.344 96.735C280.874 99.9583 280.899 101.962 279.453 105.423C277.256 110.679 276.041 110.981 255.225 111.424L236.555 111.821L236.629 117.786L236.703 123.751H256.056C272.748 123.751 275.917 123.555 279.098 122.327C283.736 120.537 287.939 116.493 290.687 111.175C292.458 107.748 292.814 106.041 292.785 101.085C292.744 94.0366 291.399 90.5056 286.89 85.6138C281.733 80.019 277.282 78.5453 265.328 78.477C253.847 78.4117 251.7 77.5449 249.644 72.1441C248.25 68.4803 249.472 63.6577 252.506 60.8448C254.495 59.0013 254.876 58.9607 272.13 58.7516L289.725 58.5376L289.957 52.3742L290.189 46.2108L272.461 46.2792C262.71 46.3166 253.835 46.6204 252.739 46.9536ZM320.343 67.6333C315.543 69.103 309.958 72.6714 306.582 76.4259C301.488 82.0915 299.398 87.8286 299.335 96.3135C299.291 102.276 299.575 103.683 301.738 108.243C304.724 114.537 309.441 119.388 315.441 122.334C319.456 124.305 320.811 124.546 327.898 124.546C335.928 124.546 337.097 124.223 345.934 119.567C346.23 119.41 346.588 120.288 346.729 121.517C346.983 123.728 347.042 123.751 352.552 123.751H358.119L358.336 108.729C358.583 91.6468 357.747 86.6445 353.558 80.1168C350.47 75.3037 343.043 69.7002 337.618 68.089C333.402 66.8372 323.775 66.5827 320.343 67.6333ZM377.695 68.8771C363.749 73.2265 362.607 93.4998 375.917 100.454C379.763 102.463 380.948 102.676 388.278 102.676C393.764 102.676 396.853 103.018 397.831 103.732C399.674 105.08 399.688 108.633 397.859 110.655C396.549 112.102 395.352 112.219 381.854 112.219H367.265V118.184V124.148L382.574 124.131C399.876 124.111 402.209 123.553 406.793 118.33C412.404 111.94 412.374 102.53 406.723 96.4153C402.586 91.9371 399.062 90.7839 389.457 90.764C379.837 90.7441 378.399 89.9894 378.399 84.9633C378.399 80.0572 379.834 79.6126 395.675 79.6126H409.415V73.648V67.6834L395.298 67.7367C385.727 67.7725 380.059 68.1398 377.695 68.8771ZM474.901 75.4374C475.184 79.7017 475.417 92.4317 475.419 103.726L475.423 124.26L480.989 124.005L486.555 123.751L486.556 95.717L486.557 67.6834H480.472H474.388L474.901 75.4374ZM324.59 79.5792C317.371 81.2986 312.285 87.2298 311.775 94.5201C311.504 98.3924 311.806 99.7658 313.739 103.444C321.651 118.496 345.687 112.68 345.775 95.6916C345.81 88.6637 340.73 82.1233 333.589 80.0023C329.258 78.7163 328.383 78.675 324.59 79.5792Z" fill="white"/>
<path fill-rule="evenodd" clip-rule="evenodd" d="M418.958 83.1914V124.148H424.923H430.887V112.219C430.887 105.658 431.155 100.29 431.484 100.29C431.812 100.29 436.733 105.447 442.419 111.748C448.105 118.05 453.115 123.34 453.553 123.502C453.99 123.665 457.683 123.608 461.76 123.377L469.172 122.955L456.415 109.436C449.399 102 443.663 95.558 443.669 95.1206C443.675 94.6832 449.201 88.4203 455.951 81.2032L468.223 68.081L460.57 67.852L452.917 67.6229L446.087 75.0095C442.331 79.0718 437.382 84.3644 435.089 86.7701L430.919 91.1442L430.903 66.6893L430.887 42.2344H424.923H418.958V83.1914ZM479.399 44.4031C474.814 45.6843 472.242 48.8702 472.242 53.2681C472.242 56.551 475.622 60.3422 479.139 61.0014C487.263 62.526 492.903 52.5945 487.04 47.0872C485.041 45.2087 481.264 43.8822 479.399 44.4031ZM252.739 46.9536C242.858 49.9598 236.015 60.2674 237.076 70.5464C237.95 79.0225 242.21 85.3903 249.339 88.8776C253.328 90.8301 254.854 91.0957 263.418 91.3311C274.386 91.6333 277.41 92.6592 279.344 96.735C280.874 99.9583 280.899 101.962 279.453 105.423C277.256 110.679 276.041 110.981 255.225 111.424L236.555 111.821L236.629 117.786L236.703 123.751H256.056C272.748 123.751 275.917 123.555 279.098 122.327C283.736 120.537 287.939 116.493 290.687 111.175C292.458 107.748 292.814 106.041 292.785 101.085C292.744 94.0366 291.399 90.5056 286.89 85.6138C281.733 80.019 277.282 78.5453 265.328 78.477C253.847 78.4117 251.7 77.5449 249.644 72.1441C248.25 68.4803 249.472 63.6577 252.506 60.8448C254.495 59.0013 254.876 58.9607 272.13 58.7516L289.725 58.5376L289.957 52.3742L290.189 46.2108L272.461 46.2792C262.71 46.3166 253.835 46.6204 252.739 46.9536ZM320.343 67.6333C315.543 69.103 309.958 72.6714 306.582 76.4259C301.488 82.0915 299.398 87.8286 299.335 96.3135C299.291 102.276 299.575 103.683 301.738 108.243C304.724 114.537 309.441 119.388 315.441 122.334C319.456 124.305 320.811 124.546 327.898 124.546C335.928 124.546 337.097 124.223 345.934 119.567C346.23 119.41 346.588 120.288 346.729 121.517C346.983 123.728 347.042 123.751 352.552 123.751H358.119L358.336 108.729C358.583 91.6468 357.747 86.6445 353.558 80.1168C350.47 75.3037 343.043 69.7002 337.618 68.089C333.402 66.8372 323.775 66.5827 320.343 67.6333ZM377.695 68.8771C363.749 73.2265 362.607 93.4998 375.917 100.454C379.763 102.463 380.948 102.676 388.278 102.676C393.764 102.676 396.853 103.018 397.831 103.732C399.674 105.08 399.688 108.633 397.859 110.655C396.549 112.102 395.352 112.219 381.854 112.219H367.265V118.184V124.148L382.574 124.131C399.876 124.111 402.209 123.553 406.793 118.33C412.404 111.94 412.374 102.53 406.723 96.4153C402.586 91.9371 399.062 90.7839 389.457 90.764C379.837 90.7441 378.399 89.9894 378.399 84.9633C378.399 80.0572 379.834 79.6126 395.675 79.6126H409.415V73.648V67.6834L395.298 67.7367C385.727 67.7725 380.059 68.1398 377.695 68.8771ZM474.901 75.4374C475.184 79.7017 475.417 92.4317 475.419 103.726L475.423 124.26L480.989 124.005L486.555 123.751L486.556 95.717L486.557 67.6834H480.472H474.388L474.901 75.4374ZM324.59 79.5792C317.371 81.2986 312.285 87.2298 311.775 94.5201C311.504 98.3924 311.806 99.7658 313.739 103.444C321.651 118.496 345.687 112.68 345.775 95.6916C345.81 88.6637 340.73 82.1233 333.589 80.0023C329.258 78.7163 328.383 78.675 324.59 79.5792Z" fill="white"/>
<path d="M636.794 101.334L640.748 111.366C640.829 111.573 640.971 111.75 641.155 111.875C641.338 112 641.555 112.066 641.777 112.066C641.999 112.066 642.216 112 642.4 111.875C642.584 111.75 642.726 111.573 642.807 111.366L646.76 101.334C647.462 99.5579 648.521 97.9449 649.872 96.5945C651.222 95.2441 652.835 94.1851 654.611 93.4829L664.577 89.5298C664.784 89.4482 664.961 89.3063 665.086 89.1227C665.211 88.939 665.277 88.7221 665.277 88.5C665.277 88.2779 665.211 88.061 665.086 87.8773C664.961 87.6937 664.784 87.5518 664.577 87.4702L654.611 83.5171C652.834 82.8166 651.22 81.7582 649.87 80.4076C648.519 79.057 647.461 77.4431 646.76 75.6662L642.807 65.7003C642.726 65.4938 642.584 65.3166 642.4 65.1917C642.216 65.0668 641.999 65 641.777 65C641.555 65 641.338 65.0668 641.155 65.1917C640.971 65.3166 640.829 65.4938 640.748 65.7003L636.794 75.6662C636.094 77.4431 635.036 79.057 633.685 80.4076C632.334 81.7582 630.72 82.8166 628.944 83.5171L618.978 87.4702C618.771 87.5518 618.594 87.6937 618.469 87.8773C618.344 88.061 618.277 88.2779 618.277 88.5C618.277 88.7221 618.344 88.939 618.469 89.1227C618.594 89.3063 618.771 89.4482 618.978 89.5298L628.944 93.4829C630.719 94.1851 632.332 95.2441 633.683 96.5945C635.033 97.9449 636.092 99.5579 636.794 101.334Z" fill="white"/>
<path d="M636.794 101.334L640.748 111.366C640.829 111.573 640.971 111.75 641.155 111.875C641.338 112 641.555 112.066 641.777 112.066C641.999 112.066 642.216 112 642.4 111.875C642.584 111.75 642.726 111.573 642.807 111.366L646.76 101.334C647.462 99.5579 648.521 97.9449 649.872 96.5945C651.222 95.2441 652.835 94.1851 654.611 93.4829L664.577 89.5298C664.784 89.4482 664.961 89.3063 665.086 89.1227C665.211 88.939 665.277 88.7221 665.277 88.5C665.277 88.2779 665.211 88.061 665.086 87.8773C664.961 87.6937 664.784 87.5518 664.577 87.4702L654.611 83.5171C652.834 82.8166 651.22 81.7582 649.87 80.4076C648.519 79.057 647.461 77.4431 646.76 75.6662L642.807 65.7003C642.726 65.4938 642.584 65.3166 642.4 65.1917C642.216 65.0668 641.999 65 641.777 65C641.555 65 641.338 65.0668 641.155 65.1917C640.971 65.3166 640.829 65.4938 640.748 65.7003L636.794 75.6662C636.094 77.4431 635.036 79.057 633.685 80.4076C632.334 81.7582 630.72 82.8166 628.944 83.5171L618.978 87.4702C618.771 87.5518 618.594 87.6937 618.469 87.8773C618.344 88.061 618.277 88.2779 618.277 88.5C618.277 88.7221 618.344 88.939 618.469 89.1227C618.594 89.3063 618.771 89.4482 618.978 89.5298L628.944 93.4829C630.719 94.1851 632.332 95.2441 633.683 96.5945C635.033 97.9449 636.092 99.5579 636.794 101.334Z" fill="white"/>
<path d="M245.669 174.451C244.241 174.451 242.953 174.209 241.805 173.723C240.666 173.238 239.723 172.547 238.977 171.651C238.239 170.746 237.759 169.677 237.535 168.445L240.111 168.039C240.437 169.309 241.114 170.303 242.141 171.021C243.177 171.731 244.395 172.085 245.795 172.085C246.7 172.085 247.517 171.945 248.245 171.665C248.982 171.376 249.565 170.965 249.995 170.433C250.424 169.901 250.639 169.271 250.639 168.543C250.639 168.095 250.559 167.713 250.401 167.395C250.251 167.069 250.041 166.793 249.771 166.569C249.509 166.336 249.211 166.14 248.875 165.981C248.539 165.823 248.189 165.692 247.825 165.589L242.687 164.063C242.127 163.895 241.585 163.685 241.063 163.433C240.54 163.172 240.073 162.85 239.663 162.467C239.252 162.075 238.925 161.609 238.683 161.067C238.44 160.517 238.319 159.868 238.319 159.121C238.319 157.927 238.627 156.909 239.243 156.069C239.868 155.22 240.713 154.571 241.777 154.123C242.841 153.675 244.04 153.456 245.375 153.465C246.728 153.475 247.937 153.717 249.001 154.193C250.074 154.66 250.961 155.332 251.661 156.209C252.37 157.087 252.846 158.137 253.089 159.359L250.443 159.821C250.303 159 249.99 158.295 249.505 157.707C249.029 157.11 248.431 156.653 247.713 156.335C246.994 156.009 246.205 155.841 245.347 155.831C244.525 155.822 243.783 155.953 243.121 156.223C242.458 156.494 241.931 156.872 241.539 157.357C241.147 157.833 240.951 158.384 240.951 159.009C240.951 159.625 241.128 160.125 241.483 160.507C241.837 160.881 242.271 161.179 242.785 161.403C243.307 161.618 243.816 161.795 244.311 161.935L248.147 163.041C248.585 163.163 249.089 163.331 249.659 163.545C250.237 163.76 250.797 164.063 251.339 164.455C251.88 164.838 252.328 165.351 252.683 165.995C253.037 166.63 253.215 167.433 253.215 168.403C253.215 169.374 253.019 170.237 252.627 170.993C252.244 171.749 251.707 172.384 251.017 172.897C250.326 173.401 249.523 173.784 248.609 174.045C247.694 174.316 246.714 174.451 245.669 174.451ZM259.511 174.031V153.871H262.003V174.031H259.511ZM269.284 174.031V153.871H271.552L279.168 169.929L286.742 153.871H289.038V174.017H286.672V159.345L279.826 174.031H278.496L271.65 159.345V174.031H269.284ZM296.044 174.031V153.871H304.01C304.206 153.871 304.439 153.881 304.71 153.899C304.98 153.909 305.242 153.937 305.494 153.983C306.586 154.151 307.5 154.525 308.238 155.103C308.984 155.682 309.544 156.415 309.918 157.301C310.291 158.179 310.478 159.154 310.478 160.227C310.478 161.291 310.286 162.267 309.904 163.153C309.53 164.031 308.97 164.763 308.224 165.351C307.486 165.93 306.576 166.303 305.494 166.471C305.242 166.509 304.98 166.537 304.71 166.555C304.439 166.574 304.206 166.583 304.01 166.583H298.536V174.031H296.044ZM298.536 164.217H303.926C304.103 164.217 304.304 164.208 304.528 164.189C304.761 164.171 304.98 164.138 305.186 164.091C305.83 163.942 306.352 163.671 306.754 163.279C307.164 162.878 307.463 162.411 307.65 161.879C307.836 161.338 307.93 160.787 307.93 160.227C307.93 159.667 307.836 159.121 307.65 158.589C307.463 158.048 307.164 157.577 306.754 157.175C306.352 156.774 305.83 156.503 305.186 156.363C304.98 156.307 304.761 156.275 304.528 156.265C304.304 156.247 304.103 156.237 303.926 156.237H298.536V164.217ZM316.63 174.031V153.871H319.122V171.665H328.474V174.031H316.63ZM334.203 174.031V153.871H336.695V174.031H334.203ZM343.975 174.031V153.871H355.735V156.363H346.467V162.705H354.055V165.197H346.467V174.031H343.975ZM366.159 174.031V165.645L359.369 153.871H362.267L367.419 162.789L372.557 153.871H375.455L368.679 165.645V174.031H366.159ZM380.056 174.031V153.871H382.548V174.031H380.056ZM389.828 174.031V153.871H392.348L402.862 169.621V153.871H405.382V174.031H402.862L392.348 158.267V174.031H389.828ZM420.539 174.451C419.158 174.451 417.898 174.209 416.759 173.723C415.621 173.238 414.641 172.543 413.819 171.637C412.998 170.723 412.363 169.621 411.915 168.333C411.477 167.036 411.257 165.575 411.257 163.951C411.257 161.805 411.64 159.947 412.405 158.379C413.171 156.811 414.249 155.603 415.639 154.753C417.03 153.895 418.663 153.465 420.539 153.465C422.798 153.465 424.618 153.993 425.999 155.047C427.381 156.093 428.333 157.525 428.855 159.345L426.335 159.863C425.915 158.641 425.225 157.665 424.263 156.937C423.302 156.209 422.103 155.845 420.665 155.845C419.163 155.836 417.912 156.172 416.913 156.853C415.924 157.525 415.177 158.473 414.673 159.695C414.169 160.918 413.913 162.337 413.903 163.951C413.894 165.557 414.141 166.966 414.645 168.179C415.149 169.393 415.901 170.345 416.899 171.035C417.907 171.717 419.163 172.062 420.665 172.071C421.963 172.081 423.055 171.833 423.941 171.329C424.828 170.825 425.514 170.097 425.999 169.145C426.485 168.193 426.779 167.05 426.881 165.715H422.597V163.657H429.513C429.541 163.844 429.555 164.068 429.555 164.329C429.565 164.581 429.569 164.754 429.569 164.847C429.569 166.686 429.224 168.333 428.533 169.789C427.852 171.236 426.839 172.375 425.495 173.205C424.161 174.036 422.509 174.451 420.539 174.451ZM442.731 174.031L449.479 153.871H452.951L459.699 174.031H457.109L450.795 155.327H451.579L445.321 174.031H442.731ZM445.979 169.313V166.975H456.451V169.313H445.979ZM465.565 174.031V153.871H468.057V174.031H465.565ZM482.623 174.031L489.371 153.871H492.843L499.591 174.031H497.001L490.687 155.327H491.471L485.213 174.031H482.623ZM485.871 169.313V166.975H496.343V169.313H485.871ZM511.785 174.451C510.357 174.451 509.069 174.209 507.921 173.723C506.782 173.238 505.839 172.547 505.093 171.651C504.355 170.746 503.875 169.677 503.651 168.445L506.227 168.039C506.553 169.309 507.23 170.303 508.257 171.021C509.293 171.731 510.511 172.085 511.911 172.085C512.816 172.085 513.633 171.945 514.361 171.665C515.098 171.376 515.681 170.965 516.111 170.433C516.54 169.901 516.755 169.271 516.755 168.543C516.755 168.095 516.675 167.713 516.517 167.395C516.367 167.069 516.157 166.793 515.887 166.569C515.625 166.336 515.327 166.14 514.991 165.981C514.655 165.823 514.305 165.692 513.941 165.589L508.803 164.063C508.243 163.895 507.701 163.685 507.179 163.433C506.656 163.172 506.189 162.85 505.779 162.467C505.368 162.075 505.041 161.609 504.799 161.067C504.556 160.517 504.435 159.868 504.435 159.121C504.435 157.927 504.743 156.909 505.359 156.069C505.984 155.22 506.829 154.571 507.893 154.123C508.957 153.675 510.156 153.456 511.491 153.465C512.844 153.475 514.053 153.717 515.117 154.193C516.19 154.66 517.077 155.332 517.777 156.209C518.486 157.087 518.962 158.137 519.205 159.359L516.559 159.821C516.419 159 516.106 158.295 515.621 157.707C515.145 157.11 514.547 156.653 513.829 156.335C513.11 156.009 512.321 155.841 511.463 155.831C510.641 155.822 509.899 155.953 509.237 156.223C508.574 156.494 508.047 156.872 507.655 157.357C507.263 157.833 507.067 158.384 507.067 159.009C507.067 159.625 507.244 160.125 507.599 160.507C507.953 160.881 508.387 161.179 508.901 161.403C509.423 161.618 509.932 161.795 510.427 161.935L514.263 163.041C514.701 163.163 515.205 163.331 515.775 163.545C516.353 163.76 516.913 164.063 517.455 164.455C517.996 164.838 518.444 165.351 518.799 165.995C519.153 166.63 519.331 167.433 519.331 168.403C519.331 169.374 519.135 170.237 518.743 170.993C518.36 171.749 517.823 172.384 517.133 172.897C516.442 173.401 515.639 173.784 514.725 174.045C513.81 174.316 512.83 174.451 511.785 174.451ZM532.911 174.451C531.483 174.451 530.195 174.209 529.047 173.723C527.909 173.238 526.966 172.547 526.219 171.651C525.482 170.746 525.001 169.677 524.777 168.445L527.353 168.039C527.68 169.309 528.357 170.303 529.383 171.021C530.419 171.731 531.637 172.085 533.037 172.085C533.943 172.085 534.759 171.945 535.487 171.665C536.225 171.376 536.808 170.965 537.237 170.433C537.667 169.901 537.881 169.271 537.881 168.543C537.881 168.095 537.802 167.713 537.643 167.395C537.494 167.069 537.284 166.793 537.013 166.569C536.752 166.336 536.453 166.14 536.117 165.981C535.781 165.823 535.431 165.692 535.067 165.589L529.929 164.063C529.369 163.895 528.828 163.685 528.305 163.433C527.783 163.172 527.316 162.85 526.905 162.467C526.495 162.075 526.168 161.609 525.925 161.067C525.683 160.517 525.561 159.868 525.561 159.121C525.561 157.927 525.869 156.909 526.485 156.069C527.111 155.22 527.955 154.571 529.019 154.123C530.083 153.675 531.283 153.456 532.617 153.465C533.971 153.475 535.179 153.717 536.243 154.193C537.317 154.66 538.203 155.332 538.903 156.209C539.613 157.087 540.089 158.137 540.331 159.359L537.685 159.821C537.545 159 537.233 158.295 536.747 157.707C536.271 157.11 535.674 156.653 534.955 156.335C534.237 156.009 533.448 155.841 532.589 155.831C531.768 155.822 531.026 155.953 530.363 156.223C529.701 156.494 529.173 156.872 528.781 157.357C528.389 157.833 528.193 158.384 528.193 159.009C528.193 159.625 528.371 160.125 528.725 160.507C529.08 160.881 529.514 161.179 530.027 161.403C530.55 161.618 531.059 161.795 531.553 161.935L535.389 163.041C535.828 163.163 536.332 163.331 536.901 163.545C537.48 163.76 538.04 164.063 538.581 164.455C539.123 164.838 539.571 165.351 539.925 165.995C540.28 166.63 540.457 167.433 540.457 168.403C540.457 169.374 540.261 170.237 539.869 170.993C539.487 171.749 538.95 172.384 538.259 172.897C537.569 173.401 536.766 173.784 535.851 174.045C534.937 174.316 533.957 174.451 532.911 174.451ZM546.754 174.031V153.871H549.246V174.031H546.754ZM563.681 174.451C562.253 174.451 560.965 174.209 559.817 173.723C558.678 173.238 557.736 172.547 556.989 171.651C556.252 170.746 555.771 169.677 555.547 168.445L558.123 168.039C558.45 169.309 559.126 170.303 560.153 171.021C561.189 171.731 562.407 172.085 563.807 172.085C564.712 172.085 565.529 171.945 566.257 171.665C566.994 171.376 567.578 170.965 568.007 170.433C568.436 169.901 568.651 169.271 568.651 168.543C568.651 168.095 568.572 167.713 568.413 167.395C568.264 167.069 568.054 166.793 567.783 166.569C567.522 166.336 567.223 166.14 566.887 165.981C566.551 165.823 566.201 165.692 565.837 165.589L560.699 164.063C560.139 163.895 559.598 163.685 559.075 163.433C558.552 163.172 558.086 162.85 557.675 162.467C557.264 162.075 556.938 161.609 556.695 161.067C556.452 160.517 556.331 159.868 556.331 159.121C556.331 157.927 556.639 156.909 557.255 156.069C557.88 155.22 558.725 154.571 559.789 154.123C560.853 153.675 562.052 153.456 563.387 153.465C564.74 153.475 565.949 153.717 567.013 154.193C568.086 154.66 568.973 155.332 569.673 156.209C570.382 157.087 570.858 158.137 571.101 159.359L568.455 159.821C568.315 159 568.002 158.295 567.517 157.707C567.041 157.11 566.444 156.653 565.725 156.335C565.006 156.009 564.218 155.841 563.359 155.831C562.538 155.822 561.796 155.953 561.133 156.223C560.47 156.494 559.943 156.872 559.551 157.357C559.159 157.833 558.963 158.384 558.963 159.009C558.963 159.625 559.14 160.125 559.495 160.507C559.85 160.881 560.284 161.179 560.797 161.403C561.32 161.618 561.828 161.795 562.323 161.935L566.159 163.041C566.598 163.163 567.102 163.331 567.671 163.545C568.25 163.76 568.81 164.063 569.351 164.455C569.892 164.838 570.34 165.351 570.695 165.995C571.05 166.63 571.227 167.433 571.227 168.403C571.227 169.374 571.031 170.237 570.639 170.993C570.256 171.749 569.72 172.384 569.029 172.897C568.338 173.401 567.536 173.784 566.621 174.045C565.706 174.316 564.726 174.451 563.681 174.451ZM582.438 174.031V156.237H575.564V153.871H591.804V156.237H584.93V174.031H582.438ZM595.166 174.031L601.914 153.871H605.386L612.134 174.031H609.544L603.23 155.327H604.014L597.756 174.031H595.166ZM598.414 169.313V166.975H608.886V169.313H598.414ZM617.72 174.031V153.871H620.24L630.754 169.621V153.871H633.274V174.031H630.754L620.24 158.267V174.031H617.72ZM645.463 174.031V156.237H638.589V153.871H654.829V156.237H647.955V174.031H645.463ZM667.292 174.451C665.864 174.451 664.576 174.209 663.428 173.723C662.289 173.238 661.346 172.547 660.6 171.651C659.862 170.746 659.382 169.677 659.158 168.445L661.734 168.039C662.06 169.309 662.737 170.303 663.764 171.021C664.8 171.731 666.018 172.085 667.418 172.085C668.323 172.085 669.14 171.945 669.868 171.665C670.605 171.376 671.188 170.965 671.618 170.433C672.047 169.901 672.262 169.271 672.262 168.543C672.262 168.095 672.182 167.713 672.024 167.395C671.874 167.069 671.664 166.793 671.394 166.569C671.132 166.336 670.834 166.14 670.498 165.981C670.162 165.823 669.812 165.692 669.448 165.589L664.31 164.063C663.75 163.895 663.208 163.685 662.686 163.433C662.163 163.172 661.696 162.85 661.286 162.467C660.875 162.075 660.548 161.609 660.306 161.067C660.063 160.517 659.942 159.868 659.942 159.121C659.942 157.927 660.25 156.909 660.866 156.069C661.491 155.22 662.336 154.571 663.4 154.123C664.464 153.675 665.663 153.456 666.998 153.465C668.351 153.475 669.56 153.717 670.624 154.193C671.697 154.66 672.584 155.332 673.284 156.209C673.993 157.087 674.469 158.137 674.712 159.359L672.066 159.821C671.926 159 671.613 158.295 671.128 157.707C670.652 157.11 670.054 156.653 669.336 156.335C668.617 156.009 667.828 155.841 666.97 155.831C666.148 155.822 665.406 155.953 664.744 156.223C664.081 156.494 663.554 156.872 663.162 157.357C662.77 157.833 662.574 158.384 662.574 159.009C662.574 159.625 662.751 160.125 663.106 160.507C663.46 160.881 663.894 161.179 664.408 161.403C664.93 161.618 665.439 161.795 665.934 161.935L669.77 163.041C670.208 163.163 670.712 163.331 671.282 163.545C671.86 163.76 672.42 164.063 672.962 164.455C673.503 164.838 673.951 165.351 674.306 165.995C674.66 166.63 674.838 167.433 674.838 168.403C674.838 169.374 674.642 170.237 674.25 170.993C673.867 171.749 673.33 172.384 672.64 172.897C671.949 173.401 671.146 173.784 670.232 174.045C669.317 174.316 668.337 174.451 667.292 174.451Z" fill="#D8D8D8"/>
</svg>
