<svg width="190" height="226" viewBox="0 0 190 226" fill="none" xmlns="http://www.w3.org/2000/svg">
<path fill-rule="evenodd" clip-rule="evenodd" d="M91.5832 1.23942C88.5555 2.5755 86.5522 4.82055 85.683 7.85216C84.6292 11.5256 85.5645 14.3846 88.9142 17.7344C91.9188 20.7389 91.9808 20.9195 91.9808 26.6741V32.5472L87.4755 33.1095C72.6228 34.9657 58.4915 41.4798 47.445 51.5624C43.4153 55.2406 42.6861 55.5897 38.1864 55.989C25.7649 57.0912 14.2214 67.2414 12.0487 78.9726C11.6399 81.1763 10.6871 82.4647 8.07781 84.3384C5.91544 85.8915 3.88191 88.3346 2.58401 90.9392C0.692835 94.7335 0.523438 95.9033 0.523438 105.138C0.523438 110.673 0.930622 116.418 1.42847 117.906C2.67865 121.639 5.81921 125.671 8.88661 127.482C10.9162 128.678 11.5723 129.7 11.9898 132.311C13.2448 140.158 20.2393 149.104 27.9543 152.731C33.8449 155.5 37.6392 155.959 54.8014 155.98L71.3035 155.999V157.864C71.3035 158.89 71.9302 160.265 72.6952 160.922C74.8162 162.741 94.3356 174.29 95.2884 174.29C96.2562 174.29 112.597 164.643 116.436 161.805C118.087 160.584 119.02 159.213 119.02 158.011V156.127L137.511 155.833C154.545 155.561 156.364 155.394 160.611 153.709C168.857 150.438 176.849 140.733 178.374 132.14C178.737 130.089 179.73 128.729 182.147 126.97C184.152 125.511 186.276 122.907 187.613 120.267C189.669 116.209 189.8 115.322 189.8 105.512C189.8 95.8119 189.652 94.7756 187.69 90.839C186.333 88.1167 184.369 85.7516 182.192 84.2167C179.626 82.4082 178.674 81.1302 178.265 78.9511C176.075 67.274 164.525 57.1024 152.184 55.9834C147.576 55.5659 146.919 55.2382 141.729 50.7711C134.213 44.3023 127.971 40.3879 120.725 37.5973C114.599 35.2385 104.107 32.7302 100.365 32.7302C98.3701 32.7302 98.343 32.6459 98.343 26.4594C98.343 20.6164 98.4814 20.0979 100.369 18.8613C102.917 17.192 105.493 13.0318 105.497 10.5824C105.503 7.03224 103.112 3.44473 99.6083 1.74919C95.717 -0.134831 94.8231 -0.191289 91.5832 1.23942ZM35.9135 65.2532C30.3544 66.6807 25.263 70.8703 22.2839 76.4706C20.9248 79.0259 20.8031 81.4396 20.8031 105.896C20.8031 131.677 20.8588 132.641 22.5193 135.719C24.5282 139.441 27.6433 142.5 31.5394 144.575C34.1718 145.977 37.5135 146.07 93.1005 146.276C157.898 146.517 157.018 146.576 162.983 141.634C164.635 140.265 166.783 137.658 167.754 135.841C169.475 132.623 169.521 131.874 169.521 106.691C169.521 86.8316 169.269 80.1297 168.43 77.7582C166.947 73.5591 162.316 68.6109 157.989 66.6012C154.472 64.9677 153.41 64.9367 96.3548 64.7903C64.4243 64.7076 37.2257 64.9168 35.9135 65.2532ZM51.8191 79.1603C46.5607 80.8455 44.007 82.4901 40.0076 86.7656C33.6994 93.5095 31.4169 101.151 33.1586 109.695C35.0856 119.153 41.8256 127.338 50.2969 130.507C54.4936 132.078 56.2504 132.14 95.8602 132.14H131.608C135.192 132.14 138.727 131.306 141.933 129.704V129.704C147.355 126.995 152.076 122.161 154.923 116.406C156.49 113.238 156.78 111.421 156.787 104.703C156.794 97.618 156.564 96.3129 154.68 92.7421C152.25 88.1382 146.976 82.9792 141.963 80.3047V80.3047C139.692 79.0925 137.159 78.4537 134.584 78.4439L96.7525 78.2998C64.6104 78.1765 54.2678 78.3745 51.8191 79.1603ZM59.014 95.6313C53.4391 100.526 53.4192 108.471 58.9726 112.707C62.5625 115.445 67.0455 116.025 70.8104 114.239C78.3465 110.662 79.5895 101.194 73.2527 95.6298C70.8589 93.5278 69.8266 93.1715 66.1341 93.1715C62.4409 93.1715 61.4094 93.5278 59.014 95.6313ZM119.816 93.7314C117.369 94.6213 114.197 98.3623 113.41 101.285C112.344 105.246 113.625 110.062 116.306 112.17C123.401 117.751 132.465 115.217 134.939 106.962C136.919 100.354 131.241 93.1047 124.19 93.2376C122.44 93.2702 120.472 93.4928 119.816 93.7314Z" fill="url(#paint0_linear_3860_224218)"/>
<path d="M77.3506 205.535L85.022 174.485C85.2639 173.505 86.3449 172.996 87.2544 173.432L94.7438 177.027C95.1789 177.236 95.6853 177.236 96.1204 177.027L103.59 173.442C104.506 173.002 105.593 173.523 105.826 174.512L113.131 205.555C113.253 206.074 113.107 206.619 112.743 207.007L96.5798 224.248C95.9561 224.913 94.902 224.919 94.271 224.261L77.7464 207.017C77.3692 206.624 77.2199 206.065 77.3506 205.535Z" fill="url(#paint1_linear_3860_224218)"/>
<defs>
<linearGradient id="paint0_linear_3860_224218" x1="64.6775" y1="50.6239" x2="95.1619" y2="202.073" gradientUnits="userSpaceOnUse">
<stop stop-color="#5243E9"/>
<stop offset="1" stop-color="#482683"/>
</linearGradient>
<linearGradient id="paint1_linear_3860_224218" x1="95.2333" y1="233.914" x2="81.3364" y2="190.476" gradientUnits="userSpaceOnUse">
<stop stop-color="#5243E9"/>
<stop offset="1" stop-color="#482683"/>
</linearGradient>
</defs>
</svg>
